<?xml version="1.0" encoding="UTF-8"?>
<!DOCTYPE svg PUBLIC "-//W3C//DTD SVG 1.1//EN" "http://www.w3.org/Graphics/SVG/1.1/DTD/svg11.dtd">
<!-- Creator: CorelDRAW -->
<svg xmlns="http://www.w3.org/2000/svg" xml:space="preserve" width="6.82666in" height="6.82666in" style="shape-rendering:geometricPrecision; text-rendering:geometricPrecision; image-rendering:optimizeQuality; fill-rule:evenodd; clip-rule:evenodd"
viewBox="0 0 6.82666 6.82666"
 xmlns:xlink="http://www.w3.org/1999/xlink">
 <defs>
  <style type="text/css">
   <![CDATA[
    .fil0 {fill:#424242}
    .fil1 {fill:#FFFFFE}
    .fil2 {fill:#FFFFFE;fill-rule:nonzero}
   ]]>
  </style>
 </defs>
 <rect class="fil0" width="6.82666" height="6.82666"/>
 <g id="Layer_x0020_1">
  <metadata id="CorelCorpID_0Corel-Layer"/>
  <g id="_501819752">
   <path id="_501821024" class="fil1" d="M3.41333 2.0965c0.0500197,0 0.0993819,0.00281102 0.147949,0.00824409 0.128949,0.0540984 0.245776,0.177083 0.338736,0.347508 0.0299449,0.0548937 0.057315,0.114583 0.0817795,0.178378 -0.0201496,0.00946457 -0.0405787,0.0184449 -0.0612598,0.0269213 -0.156055,0.0639252 -0.327299,0.0991772 -0.507205,0.0991772 -0.179906,0 -0.35115,-0.035252 -0.507205,-0.0991772 -0.0206811,-0.00847244 -0.0411102,-0.0174488 -0.0612598,-0.0269173 0.0244646,-0.0637992 0.0518346,-0.123484 0.0817795,-0.178382 0.0929606,-0.170425 0.209787,-0.293409 0.338736,-0.347508 0.0485669,-0.00543307 0.0979291,-0.00824409 0.147949,-0.00824409zm0.437598 0.0745c0.163374,0.0575709 0.31198,0.146461 0.438618,0.259461 -0.0618071,0.0535157 -0.128543,0.101476 -0.199437,0.143091 -0.0250906,-0.0638543 -0.0529449,-0.12389 -0.0832677,-0.179484 -0.046437,-0.0851299 -0.0987677,-0.160138 -0.155913,-0.223067zm-1.11438 0.402551c-0.0708937,-0.041622 -0.13763,-0.0895709 -0.199437,-0.143091 0.126638,-0.113 0.275244,-0.20189 0.438618,-0.259461 -0.0571457,0.0629291 -0.109476,0.137937 -0.155913,0.223067 -0.0303228,0.0555906 -0.0581772,0.11563 -0.0832677,0.179484zm1.64028 -0.0576732c0.206205,0.221311 0.337146,0.513685 0.351878,0.836406l-0.49124 0c-0.00551969,-0.240193 -0.0434291,-0.46563 -0.106,-0.662098 0.0878583,-0.0496811 0.170043,-0.108189 0.245362,-0.174307zm-0.261476 0.836406l-1.40405 0c0.00524409,-0.219937 0.0386811,-0.425906 0.0938031,-0.605945 0.0180591,0.00827559 0.036311,0.0162047 0.0547559,0.0237598 0.171075,0.0700748 0.357976,0.10872 0.553465,0.10872 0.195488,0 0.38239,-0.0386457 0.553465,-0.10872 0.0184449,-0.00755512 0.0366969,-0.0154843 0.0547559,-0.0237598 0.0551181,0.180039 0.0885591,0.386008 0.0938031,0.605945zm-1.52616 0l-0.49124 0c0.0147323,-0.32272 0.145673,-0.615094 0.351878,-0.836406 0.0753189,0.066122 0.157508,0.124626 0.245362,0.174307 -0.0625709,0.196469 -0.10048,0.421906 -0.106,0.662098zm2.13952 0.122094c-0.0147323,0.32272 -0.145673,0.615098 -0.351882,0.836409 -0.0753189,-0.066122 -0.157508,-0.124626 -0.245362,-0.174307 0.0625709,-0.196476 0.100484,-0.421898 0.106004,-0.662102l0.49124 0zm-0.707157 0.605953c-0.0180591,-0.00827953 -0.036311,-0.0162047 -0.0547598,-0.0237638 -0.171075,-0.0700748 -0.357972,-0.10872 -0.553461,-0.10872 -0.195488,0 -0.382386,0.0386457 -0.553461,0.10872 -0.0184488,0.00755906 -0.0367008,0.0154843 -0.0547598,0.0237638 -0.055122,-0.180043 -0.0885591,-0.386008 -0.0938031,-0.605953l1.40405 0c-0.00524409,0.219945 -0.0386811,0.425909 -0.0938031,0.605953zm-1.32635 0.0561496c-0.0878543,0.0496811 -0.170047,0.108185 -0.245362,0.174307 -0.206209,-0.221311 -0.33715,-0.513689 -0.351882,-0.836409l0.49124 0c0.00551969,0.240205 0.0434331,0.465626 0.106004,0.662102zm1.59435 0.25972c-0.126634,0.113 -0.275244,0.201886 -0.438614,0.259457 0.0571457,-0.0629252 0.109476,-0.137933 0.155913,-0.223063 0.0303228,-0.0555906 0.058185,-0.115622 0.0832677,-0.179484 0.0708937,0.0416142 0.13763,0.0895709 0.199433,0.143091zm-0.728264 0.325717c-0.0485669,0.00543307 -0.0979291,0.00824409 -0.147949,0.00824409 -0.0500197,0 -0.0993858,-0.00281102 -0.147949,-0.00824409 -0.128949,-0.0540984 -0.245776,-0.177087 -0.338736,-0.347508 -0.0299449,-0.0548937 -0.057315,-0.114579 -0.0817756,-0.178374 0.0201535,-0.0094685 0.0405787,-0.0184449 0.0612638,-0.0269213 0.156055,-0.0639252 0.327291,-0.0991772 0.507197,-0.0991772 0.179906,0 0.351142,0.035252 0.507197,0.0991772 0.020685,0.00847244 0.0411063,0.0174488 0.0612638,0.0269173 -0.0244606,0.0637992 -0.0518307,0.123484 -0.0817756,0.178378 -0.0929606,0.170425 -0.209787,0.293409 -0.338736,0.347508zm-0.585547 -0.0662598c-0.163374,-0.0575709 -0.311976,-0.146453 -0.43861,-0.259453 0.0618031,-0.0535157 0.128543,-0.101465 0.199433,-0.143083 0.0250866,0.0638543 0.0529409,0.123882 0.0832638,0.179472 0.046437,0.0851299 0.0987677,0.160138 0.155913,0.223063z"/>
   <circle id="_501821240" class="fil1" cx="3.41333" cy="1.06024" r="0.206912"/>
   <circle id="_501821144" class="fil1" transform="matrix(1.08798 1.08798 -1.08798 1.08798 5.07722 1.74945)" r="0.204425"/>
   <circle id="_501820472" class="fil1" transform="matrix(2.6801E-014 1.01217 -1.01217 2.6801E-014 5.76642 3.41333)" r="0.204425"/>
   <circle id="_501820424" class="fil1" transform="matrix(-0.966717 0.966717 -0.966717 -0.966717 5.07722 5.07722)" r="0.204425"/>
   <circle id="_501820376" class="fil1" cx="3.41333" cy="5.76642" r="0.206912"/>
   <circle id="_501820568" class="fil1" transform="matrix(-0.96668 -0.96668 0.96668 -0.96668 1.74945 5.07722)" r="0.204425"/>
   <circle id="_501820256" class="fil1" transform="matrix(-8.05153E-014 -1.01217 1.01217 -8.05153E-014 1.06024 3.41333)" r="0.204425"/>
   <g>
    <path id="_501820160" class="fil2" d="M3.33207 1.98869c0,-0.219378 0,-0.506406 0,-0.765614l0.165161 0c0,0.259516 0,0.552047 0,0.765764 -0.0279331,-0.00162598 -0.0559134,-0.00244094 -0.0838976,-0.00244094 -0.0271024,0 -0.0542047,0.00076378 -0.0812638,0.00229134z"/>
    <path id="_501820280" class="fil2" d="M4.36218 2.3477l0.556815 -0.556819 0.116776 0.116776 -0.556819 0.556827c-0.0406142,-0.0455748 -0.0696024,-0.0747008 -0.116094,-0.116189l-0.000677165 -0.000594488z"/>
    <path id="_501820520" class="fil2" d="M4.83785 3.33075l0.928579 0 0 0.165157 -0.928579 0c0.00347638,-0.0611339 0.00347638,-0.104024 0,-0.165157z"/>
    <path id="_501820712" class="fil2" d="M4.47895 4.36217l0.579461 0.579469 -0.116776 0.116776 -0.579461 -0.579465 0.000677165 -0.000594488c0.0464803,-0.0414764 0.0754882,-0.0705945 0.116098,-0.116185z"/>
    <path id="_501819680" class="fil2" d="M3.49591 4.83791c0,0.238425 0,0.559764 0,0.842031l-0.165157 0c0,-0.282264 0,-0.603602 0,-0.842031 0.0274961,0.00157874 0.0550315,0.0023622 0.0825787,0.0023622 0.0275433,0 0.0550827,-0.000783465 0.0825787,-0.0023622z"/>
    <path id="_501819632" class="fil2" d="M2.46448 4.47895l-0.510339 0.510339 -0.116776 -0.116776 0.510343 -0.510343c0.0406102,0.0455945 0.0696142,0.0747047 0.116102,0.116189l0.000669291 0.000590551z"/>
    <path id="_501819464" class="fil2" d="M1.98881 3.49591l-0.887736 0 0 -0.165157 0.887736 0c-0.00347638,0.0611339 -0.00347638,0.104024 0,0.165157z"/>
    <path id="_501819416" class="fil2" d="M2.3477 2.4645l-0.477276 -0.477287 0.116776 -0.116776 0.477264 0.47728 -0.000661417 0.000586614c-0.0464961,0.0414921 -0.0754803,0.0706181 -0.116102,0.116197z"/>
   </g>
   <circle id="_501819728" class="fil1" transform="matrix(1.29828 -1.29828 1.29828 1.29828 1.74944 1.74944)" r="0.204425"/>
  </g>
 </g>
</svg>
